<?xml version="1.0" encoding="UTF-8"?>
<svg xmlns="http://www.w3.org/2000/svg" viewBox="0 0 64 64" width="64" height="64">
  <defs>
    <linearGradient id="g" x1="0" x2="1" y1="0" y2="1">
      <stop offset="0%" stop-color="#0ea5e9"/>
      <stop offset="100%" stop-color="#3b82f6"/>
    </linearGradient>
  </defs>
  <rect x="2" y="2" width="60" height="60" rx="14" fill="url(#g)"/>
  <!-- Film perforations (more prominent) -->
  <g fill="#ffffffaa">
    <rect x="7" y="11" width="8" height="8" rx="2"/>
    <rect x="7" y="24" width="8" height="8" rx="2"/>
    <rect x="7" y="37" width="8" height="8" rx="2"/>
    <rect x="7" y="50" width="8" height="8" rx="2"/>
    <rect x="49" y="11" width="8" height="8" rx="2"/>
    <rect x="49" y="24" width="8" height="8" rx="2"/>
    <rect x="49" y="37" width="8" height="8" rx="2"/>
    <rect x="49" y="50" width="8" height="8" rx="2"/>
  </g>
  <!-- Play button -->
  <circle cx="32" cy="32" r="16" fill="#00000022"/>
  <path d="M28 24 L28 40 L42 32 Z" fill="#fff"/>
  
</svg>
